<svg width="65" height="65" viewBox="0 0 65 65" fill="none" xmlns="http://www.w3.org/2000/svg">
<path d="M63.8202 51.7438L44.2805 32.2041L63.8202 12.6644C64.0295 12.4551 64.1825 12.2095 64.2791 11.9479C64.5448 11.2313 64.3918 10.394 63.8202 9.8184L54.5898 0.587979C54.0141 0.0123352 53.1768 -0.140633 52.4603 0.129074C52.1986 0.225686 51.9531 0.378654 51.7438 0.587979L32.2041 20.1276L12.6644 0.587979C12.4551 0.378654 12.2095 0.225686 11.9479 0.129074C11.2313 -0.136607 10.394 0.0123352 9.8184 0.587979L0.587979 9.8184C0.0123352 10.394 -0.140633 11.2313 0.129074 11.9479C0.225686 12.2095 0.378654 12.4551 0.587979 12.6644L20.1276 32.2041L0.587979 51.7438C0.378654 51.9531 0.225686 52.1986 0.129074 52.4603C-0.136607 53.1768 0.0123352 54.0141 0.587979 54.5898L9.8184 63.8202C10.394 64.3958 11.2313 64.5488 11.9479 64.2791C12.2095 64.1825 12.4551 64.0295 12.6644 63.8202L32.2041 44.2805L51.7438 63.8202C51.9531 64.0295 52.1986 64.1825 52.4603 64.2791C53.1768 64.5448 54.0141 64.3958 54.5898 63.8202L63.8202 54.5898C64.3958 54.0141 64.5488 53.1768 64.2791 52.4603C64.1825 52.1986 64.0295 51.9531 63.8202 51.7438Z" fill="#009900"/>
</svg>
