<svg width="65" height="65" viewBox="0 0 65 65" fill="none" xmlns="http://www.w3.org/2000/svg">
<path d="M64.4078 32.2042C64.4078 41.7406 60.2575 50.319 53.6637 56.2083C45.3993 60.2338 37.6985 57.4159 35.1584 55.6568C43.2739 53.8815 49.3967 44.0714 49.3967 32.2082C49.3967 20.345 43.2699 10.5349 35.1584 8.74753C37.7106 6.98435 45.4114 4.17052 53.6637 8.19201C60.2535 14.0934 64.4078 22.6718 64.4078 32.2082V32.2042Z" fill="#CD0319"/>
<path d="M21.6009 14.0531C18.0423 18.2557 15.7397 24.4671 15.5868 31.4513V32.973C15.7397 39.9411 18.0544 46.1565 21.613 50.3591C26.2302 56.3612 33.0977 60.1572 40.7704 60.1572C45.4883 60.1572 49.9042 58.7241 53.6762 56.2203C47.964 61.3166 40.4443 64.4082 32.2041 64.4082C31.6888 64.4082 31.1736 64.3961 30.6704 64.3719C13.5982 63.5668 0 49.4775 0 32.2041C0 14.4154 14.4154 0 32.2041 0H32.3289C40.5288 0.0241531 48.0042 3.11977 53.6762 8.20399C49.9002 5.70012 45.4883 4.25496 40.7704 4.25496C33.0977 4.25496 26.2302 8.05505 21.5969 14.0531H21.6009Z" fill="#CD0319"/>
</svg>
